<svg width="18" height="18" viewBox="0 0 18 18" fill="none" xmlns="http://www.w3.org/2000/svg">
<g clip-path="url(#clip0_8_136)">
<path d="M16.3502 7.50018C16.6927 9.18115 16.4486 10.9287 15.6586 12.4515C14.8686 13.9743 13.5804 15.1802 12.0088 15.8682C10.4373 16.5561 8.67743 16.6845 7.02269 16.232C5.36794 15.7794 3.91836 14.7732 2.91567 13.3812C1.91298 11.9893 1.41781 10.2956 1.51271 8.58271C1.60762 6.86983 2.28687 5.24124 3.4372 3.96855C4.58753 2.69586 6.1394 1.856 7.83401 1.58902C9.52863 1.32203 11.2636 1.64407 12.7495 2.50143M6.74976 8.24982L8.99976 10.4998L16.4998 2.99982" stroke="#00BFA5" stroke-width="2" stroke-linecap="round"/>
</g>
<defs>
<clipPath id="clip0_8_136">
<rect width="18" height="18" fill="white"/>
</clipPath>
</defs>
</svg>
